<!DOCTYPE svg PUBLIC "-//W3C//DTD SVG 1.1//EN" "http://www.w3.org/Graphics/SVG/1.1/DTD/svg11.dtd">
<!-- Uploaded to: SVG Repo, www.svgrepo.com, Transformed by: SVG Repo Mixer Tools -->
<svg fill="#000000" width="800px" height="800px" viewBox="0 0 24 24" id="investment-dollar" data-name="Flat Line" xmlns="http://www.w3.org/2000/svg" class="icon flat-line">
<g id="SVGRepo_bgCarrier" stroke-width="0"/>
<g id="SVGRepo_tracerCarrier" stroke-linecap="round" stroke-linejoin="round"/>
<g id="SVGRepo_iconCarrier">
<path id="secondary" d="M12,21a14.43,14.43,0,0,0,4.19-.57A4,4,0,0,0,19,16.61h0a11.29,11.29,0,0,0-.46-3.16L17.15,8.83A5.38,5.38,0,0,0,12,5h0A5.38,5.38,0,0,0,6.85,8.83L5.46,13.45A11.29,11.29,0,0,0,5,16.61H5a4,4,0,0,0,2.81,3.82A14.43,14.43,0,0,0,12,21Z" style="fill: #2ca9bc; stroke-width: 2;"/>
<path id="primary" d="M20,6a3.43,3.43,0,0,1-3-.35,9.72,9.72,0,0,0-4-.57" style="fill: none; stroke: #000000; stroke-linecap: round; stroke-linejoin: round; stroke-width: 2;"/>
<path id="primary-2" data-name="primary" d="M14,10H11.5A1.5,1.5,0,0,0,10,11.5h0A1.5,1.5,0,0,0,11.5,13h1A1.5,1.5,0,0,1,14,14.5h0A1.5,1.5,0,0,1,12.5,16H10" style="fill: none; stroke: #000000; stroke-linecap: round; stroke-linejoin: round; stroke-width: 2;"/>
<polyline id="primary-3" data-name="primary" points="11.04 5 10.5 3 13.5 3 12.97 4.97" style="fill: none; stroke: #000000; stroke-linecap: round; stroke-linejoin: round; stroke-width: 2;"/>
<path id="primary-4" data-name="primary" d="M12,10V9m0,8V16m0,5a14.43,14.43,0,0,0,4.19-.57A4,4,0,0,0,19,16.61h0a11.29,11.29,0,0,0-.46-3.16L17.15,8.83A5.38,5.38,0,0,0,12,5h0A5.38,5.38,0,0,0,6.85,8.83L5.46,13.45A11.29,11.29,0,0,0,5,16.61H5a4,4,0,0,0,2.81,3.82A14.43,14.43,0,0,0,12,21Z" style="fill: none; stroke: #000000; stroke-linecap: round; stroke-linejoin: round; stroke-width: 2;"/>
</g>
</svg>